<mxfile host="app.diagrams.net" modified="2023-10-19T04:33:42.543Z" agent="Mozilla/5.0 (Windows NT 10.0; Win64; x64) AppleWebKit/537.36 (KHTML, like Gecko) Chrome/118.0.0.0 Safari/537.36" version="22.0.0" etag="ZLbH0v3kTuTPsJoctTRH" type="github">
  <diagram name="Page-1" id="r4_W5XKMClKWYvbHnN10">
    <mxGraphModel>
      <root>
        <mxCell id="0" />
        <mxCell id="1" parent="0" />
      </root>
    </mxGraphModel>
  </diagram>
</mxfile>
